<svg width="72" height="88" viewBox="0 0 72 88" fill="none" xmlns="http://www.w3.org/2000/svg">
<path d="M69.8536 44.0385C68.0802 39.0854 65.4356 34.4955 62.0411 30.4765C60.6388 28.5937 58.4356 27.4843 56.088 27.4765H48.9942V21.2265C48.9864 20.0077 49.7716 18.9257 50.9317 18.5546L59.5879 15.7108C60.4082 15.4373 60.8535 14.5546 60.5801 13.7342C60.3067 12.9138 59.4239 12.4686 58.6035 12.742L49.9473 15.617C47.5098 16.4138 45.8653 18.6912 45.8692 21.2576V27.5076H25.1662L21.0881 17.1796C22.6779 16.7382 24.3342 16.5858 25.9787 16.7264C27.7287 16.9452 29.7912 17.0858 31.0412 15.5545L34.8068 11.3357C35.7209 10.3084 36.0373 8.88264 35.6467 7.56624C35.256 6.24984 34.2092 5.22644 32.885 4.86704L15.182 0.132644C13.4711 -0.320476 11.6703 0.413895 10.7601 1.92954L1.27566 17.7735C0.584249 18.9571 0.549099 20.4141 1.18191 21.629C1.81863 22.8478 3.03351 23.6485 4.40071 23.7579L9.88511 24.0861H10.1195C11.9164 24.1954 13.2445 22.6799 14.2757 21.4142C15.3734 20.1798 16.6859 19.1525 18.1507 18.383L21.7601 27.4611H15.4476C13.0999 27.4689 10.8968 28.5783 9.49449 30.4611L6.90069 33.9923C-5.50531 50.1643 -0.614912 75.3203 17.0097 85.6333C18.9628 86.8364 21.2128 87.481 23.5097 87.4927H47.9787C50.2873 87.477 52.5451 86.8286 54.5099 85.6177C61.3458 81.3989 66.5719 75.0127 69.3539 67.4767C72.1351 59.9376 72.3106 51.6875 69.8536 44.0385ZM52.9476 82.9605C52.3851 83.3159 51.7796 83.605 51.1507 83.8198C53.4827 80.644 54.7718 76.8237 54.8382 72.8818V70.5537C54.8382 69.6905 54.139 68.9912 53.2757 68.9912C52.4124 68.9912 51.7132 69.6905 51.7132 70.5537C52.057 74.0264 51.2874 77.5185 49.5101 80.5225L47.1039 84.3663H30.4479C28.819 82.7608 27.5495 80.8272 26.7291 78.6944C26.3776 77.9562 25.5182 77.6124 24.7525 77.9093C23.9908 78.2022 23.5845 79.0382 23.8228 79.8195C24.4635 81.4445 25.3267 82.9757 26.3853 84.3664H23.5103C21.7642 84.3703 20.0494 83.8742 18.5728 82.9445C11.0767 78.3234 5.76384 70.8745 3.83484 62.2845C1.90514 53.6907 3.52234 44.6865 8.32314 37.3045L11.5575 39.9607C15.5145 43.2341 21.038 43.8474 25.6195 41.5232C28.3695 40.1482 31.6039 40.1482 34.3539 41.5232L37.2601 42.9763C40.0687 44.3825 43.4671 43.8278 45.682 41.6013C46.9437 40.3318 48.8851 40.0232 50.4789 40.8357L53.432 42.3045C55.3539 43.2029 57.5609 43.2537 59.5218 42.4412C61.4788 41.6326 63.0062 40.031 63.7288 38.0389C73.0726 52.8669 68.1036 74.0225 52.9476 82.9605Z" fill="url(#paint0_linear_359_15)"/>
<defs>
<linearGradient id="paint0_linear_359_15" x1="71.5764" y1="4.01317" x2="1.53322e-06" y2="83.4795" gradientUnits="userSpaceOnUse">
<stop stop-color="#FCB52C"/>
<stop offset="1" stop-color="#966C1A"/>
</linearGradient>
</defs>
</svg>
